<?xml version="1.0" encoding="UTF-8" standalone="no"?>
<svg
   xmlns:dc="http://purl.org/dc/elements/1.1/"
   xmlns:cc="http://creativecommons.org/ns#"
   xmlns:rdf="http://www.w3.org/1999/02/22-rdf-syntax-ns#"
   xmlns:svg="http://www.w3.org/2000/svg"
   xmlns="http://www.w3.org/2000/svg"
   xmlns:sodipodi="http://sodipodi.sourceforge.net/DTD/sodipodi-0.dtd"
   xmlns:inkscape="http://www.inkscape.org/namespaces/inkscape"
   version="1.1"
   id="svg833"
   xml:space="preserve"
   width="800"
   height="700"
   viewBox="0 0 800.00003 700"
   sodipodi:docname="logo.svg"
   inkscape:version="1.0.2-2 (e86c870879, 2021-01-15)"><metadata
     id="metadata839"><rdf:RDF><cc:Work
         rdf:about=""><dc:format>image/svg+xml</dc:format><dc:type
           rdf:resource="http://purl.org/dc/dcmitype/StillImage" /><dc:title /></cc:Work></rdf:RDF></metadata><defs
     id="defs837" /><sodipodi:namedview
     pagecolor="#ffffff"
     bordercolor="#666666"
     borderopacity="1"
     objecttolerance="10"
     gridtolerance="10"
     guidetolerance="10"
     inkscape:pageopacity="0"
     inkscape:pageshadow="2"
     inkscape:window-width="1920"
     inkscape:window-height="1001"
     id="namedview835"
     showgrid="false"
     inkscape:zoom="0.65386547"
     inkscape:cx="313.04564"
     inkscape:cy="591.00766"
     inkscape:window-x="-9"
     inkscape:window-y="-9"
     inkscape:window-maximized="1"
     inkscape:current-layer="g841"
     inkscape:document-rotation="0" /><g
     id="g841"
     inkscape:groupmode="layer"
     inkscape:label="Estoke Zero logo n• 2"
     transform="matrix(1.3333333,0,0,-1.3333333,0,793.7008)"><g
       id="g845"
       transform="matrix(2.906833,0,0,2.906833,-924.3676,-509.50454)"><path
         d="m 418.8515,214.8871 c 25.8718,-1.0621 43.6351,9.9434 59.9587,27.2035 13.462,14.2342 23.0913,49.8705 14.1497,68.118 -3.4568,-3.2822 -5.7305,-7.8143 -9.9666,-11.2793 -22.9275,-18.7538 -38.4112,-13.1182 -42.4046,-21.4764 -1.5387,-3.2205 -2.1668,-13.8904 -2.9324,-18.2883 -1.8023,-10.3524 -5.5837,-22.8926 -10.66,-32.0695 -1.5596,-2.8196 -7.7052,-10.8508 -8.1448,-12.208 z m 61.359,127.4448 4.9896,1.5069 c -3.6899,0.5434 -3.0762,1.0472 -5.8655,-0.828 -15.0681,0.5426 -28.3754,-11.1707 -37.101,-20.7379 -12.5121,-13.7192 -14.2038,-29.6289 -18.5794,-38.6147 -21.0568,56.9474 39.9785,87.7802 79.5598,80.2664 5.3302,-11.8452 -4.0913,-36.7943 -2.918,-41.4661 0.8906,-3.5458 2.8156,-7.3817 3.8384,-11.6731 4.4504,-18.6712 3.1895,-36.335 -4.1171,-53.992 -12.4568,-30.1048 -41.379,-50.9905 -74.8397,-52.5283 -6.1033,-0.28 -11.0841,0.7626 -16.5189,0.7739 -3.8756,0.008 -9.235,-3.509 -11.7805,1.4581 -2.9257,5.709 1.9735,7.5833 5.1443,9.7671 42.6521,29.3768 22.7667,64.9715 42.6974,98.6831 7.4954,12.6782 19.9006,25.4559 35.4906,27.3846"
         style="fill:#3e641b;fill-opacity:1;fill-rule:evenodd;stroke:none"
         id="path847" /><path
         d="m 363.4432,357.8488 1.6634,0.8767 c 1.2886,-11.1251 7.454,-13.3146 16.1521,-17.8157 7.7247,-3.9969 13.8549,-8.4844 20.5974,-13.2659 13.026,-9.2372 20.4871,-33.7657 14.6219,-49.5932 -2.6665,4.2097 -3.7581,11.4947 -5.9289,16.6564 -5.7966,13.7834 -17.4053,28.2534 -32.0763,32.288 3.5204,-3.5317 8.1751,-6.2793 11.6178,-10.1585 11.6501,-13.1281 17.4345,-26.9 19.6897,-44.8246 -19.7631,1.8 -37.6772,8.8129 -46.8002,26.504 -7.6955,14.923 -7.0937,44.6641 0.4631,59.3328"
         style="fill:#92c83d;fill-opacity:1;fill-rule:evenodd;stroke:none"
         id="path851" /><path
         d="m 339.715,262.6302 c -8.24,24.2595 -3.6434,63.97 12.113,77.0924 -0.7719,-7.5696 -0.3832,-14.8354 -1.0106,-21.7057 -0.4164,-4.5623 -3.3049,-11.4537 -4.1037,-17.3591 -1.7163,-12.6833 -0.3387,-25.7292 4.1494,-37.5896 12.4424,-32.8802 35.8429,-37.9177 43.3346,-43.7902 -4.1839,-5.0417 -3.5044,-0.1154 -6.7697,-7.9234 -9.2236,2.2915 -23.3025,13.5581 -29.1965,20.3953 -8.9635,10.3986 -14.0043,17.5966 -18.5165,30.8803"
         style="fill:#92c83d;fill-opacity:1;fill-rule:evenodd;stroke:none"
         id="path853" /><path
         d="m 462.596,364.801 c -3.0886,-1.5168 -6.6997,-2.2915 -10.0204,-3.5563 -9.1168,-3.4724 -9.6991,4.9317 -35.1808,3.8322 -7.8302,-0.3379 -15.6501,-2.0027 -22.9136,-4.7461 -15.2172,-5.7478 -19.3241,-16.3559 -23.0553,-0.536 21.9614,18.1905 67.826,21.9557 91.1701,5.0062"
         style="fill:#92c83d;fill-opacity:1;fill-rule:evenodd;stroke:none"
         id="path855" /><path
         d="m 480.2105,342.3319 -0.8759,0.6789 c 2.7893,1.8752 2.1756,1.3714 5.8655,0.828 z"
         style="fill:#3e641b;fill-opacity:1;fill-rule:evenodd;stroke:#3e641b;stroke-width:0.216;stroke-linecap:butt;stroke-linejoin:miter;stroke-miterlimit:22.9256;stroke-dasharray:none;stroke-opacity:1"
         id="path857" /><path
         d="m 365.1066,358.7255 -1.6634,-0.8767 0.7731,2.7989 z"
         style="fill:#b6d886;fill-opacity:1;fill-rule:evenodd;stroke:none"
         id="path859" /></g></g></svg>
